<svg width="1150" height="512" viewBox="0 0 1150 512" fill="none" xmlns="http://www.w3.org/2000/svg">
<path d="M406 255.982C406.014 285.981 397.027 315.295 380.202 340.133C363.376 364.971 339.486 384.192 311.62 395.31C281.254 407.433 247.757 409.299 216.232 400.625C184.707 391.951 156.881 373.212 136.993 347.262C123.933 330.204 114.679 310.547 109.855 289.614C105.03 268.68 104.747 246.956 109.024 225.904L109.183 225.132C114.176 201.48 124.803 179.383 140.162 160.715C155.521 142.048 175.158 127.362 197.406 117.904C212.572 111.503 228.695 107.665 245.118 106.545C248.822 106.136 252.389 106 256.001 106C293.736 105.954 330.097 120.148 357.818 145.747C385.539 171.346 402.575 206.463 405.523 244.078C405.841 247.986 406 251.984 406 255.982Z" fill="#E0F1FA"/>
<path d="M405.521 244.076L402.499 243.304C399.341 242.509 397.228 216.883 393.843 215.407C390.457 213.93 390.048 201.458 387.708 201.458C385.368 201.458 384.55 204.411 381.801 212.681C379.052 220.95 381.801 223.017 381.801 226.834C381.801 230.65 381.165 237.806 378.847 235.262C376.53 232.718 366.374 203.571 362.352 202.957C358.331 202.344 354.764 193.87 351.81 192.598C348.857 191.326 346.925 193.234 341.654 193.234C336.383 193.234 335.951 188.986 333.611 189.213C331.271 189.44 328.34 187.964 324.341 187.532C320.343 187.1 317.048 179.831 314.504 183.307C311.959 186.782 317.503 193.053 322.569 195.824C327.636 198.596 329.385 195.256 332.884 196.324C336.383 197.392 338.155 203.321 336.27 208.614C334.384 213.907 329.272 216.679 323.387 219.223C317.503 221.768 313.481 223.767 312.232 215.975C310.982 208.182 294.646 194.302 292.738 191.758C290.829 189.213 290.784 184.17 288.194 184.806C284.672 185.556 282.536 187.918 283.172 188.963C283.809 190.008 292.26 205.002 300.462 210.318C307.051 214.521 309.346 224.721 312.072 228.288C314.072 230.923 319.32 229.81 324.137 228.469C324.743 228.299 325.383 228.285 325.996 228.428C326.609 228.572 327.176 228.868 327.644 229.29C328.111 229.712 328.464 230.246 328.669 230.841C328.874 231.437 328.925 232.074 328.817 232.695C325.455 249.347 304.098 260.547 301.826 269.475C299.304 279.402 305.211 291.443 303.939 296.532C302.666 301.62 290.193 302.211 289.148 307.095C288.103 311.98 296.509 315.773 290.17 319.136C286.535 321.021 286.876 315.523 284.922 322.293C281.514 334.152 265.496 339.831 259.771 341.285C254.045 342.739 249.66 340.672 251.114 336.742C252.568 332.812 247.115 318.136 240.345 313.274C233.574 308.413 233.529 301.916 238.073 285.809C242.617 269.702 220.124 271.678 225.622 258.139C231.12 244.599 220.964 245.667 214.625 239.965C208.287 234.262 191.201 262.296 172.116 234.353C153.031 206.411 181.84 187.464 186.271 184.511C190.701 181.557 198.744 171.198 200.857 171.811C202.97 172.425 216.466 169.085 221.305 167.382C226.145 165.678 234.188 164.86 235.46 167.382C236.732 169.903 230.189 168.881 233.756 173.311C237.323 177.741 270.108 180.694 276.652 180.126C283.195 179.558 284.695 180.967 287.194 174.197C289.693 167.427 275.993 168.086 272.221 168.699C268.45 169.313 268.427 160.748 263.133 166.836C260.861 169.585 256.317 163.724 255.954 159.249C255.59 154.773 243.276 149.276 241.14 152.66C239.004 156.045 250.773 157.908 251.069 159.476C251.25 160.225 248.956 163.27 247.683 165.61C246.411 167.949 246.002 165.61 246.229 163.497C246.457 161.384 240.186 160.089 237.891 157.363C235.596 154.637 229.825 153.115 224.509 154.841C219.192 156.568 219.033 157.295 213.967 162.565C208.9 167.836 199.358 166.45 198.062 165.61C196.767 164.769 199.358 158.794 199.971 155.296C200.584 151.797 207.173 154.001 210.74 155.046C214.307 156.091 214.126 153.569 213.512 149.775C212.899 145.981 214.353 144.187 216.466 143.755C218.579 143.324 229.098 141.938 233.779 137.076C237.414 133.328 243.298 136.031 246.252 136.031C249.206 136.031 258.657 134.782 260.18 124.672C260.566 122.151 261.247 119.584 257.067 122.401C253.98 123.986 251.568 126.632 250.274 129.852C249.001 133.01 238.686 131.806 234.96 129.693C231.234 127.58 236.028 125.422 246.638 118.016C257.249 110.61 272.221 121.764 275.925 121.219C279.628 120.674 290.17 109.86 290.17 109.86C321.151 117.103 349.024 134.01 369.76 158.138C390.497 182.266 403.02 212.362 405.521 244.076Z" fill="url(#paint0_linear_31_206)"/>
<path d="M208.014 136.667C208.355 136.667 213.989 133.964 214.421 135.055C214.853 136.145 212.49 139.598 211.218 140.03C209.945 140.461 205.31 141.393 205.219 140.62C205.129 139.848 208.014 136.667 208.014 136.667Z" fill="url(#paint1_linear_31_206)"/>
<path d="M219.851 130.013C219.851 130.013 221.532 128.332 222.623 128.832C223.714 129.331 226.849 135.647 226.849 135.647C226.849 135.647 219.26 140.19 217.352 139.759C215.443 139.327 220.601 133.125 219.851 130.013Z" fill="url(#paint2_linear_31_206)"/>
<path d="M384.482 232.239C384.078 234.623 384.078 237.057 384.482 239.441C384.913 240.668 386.754 238.873 387.141 238.191C387.527 237.51 384.777 232.08 384.482 232.239Z" fill="url(#paint3_linear_31_206)"/>
<path d="M312.754 298.894C312.529 299.027 312.335 299.208 312.186 299.424C312.037 299.64 311.936 299.885 311.891 300.143C311.55 302.597 312.3 305.982 311.255 307.754C310.21 309.526 306.552 317.136 308.187 319.112C309.823 321.089 314.299 322.384 315.571 320.271C316.844 318.158 329.454 288.875 325.069 288.875C322.138 288.875 324.614 292.396 320.524 294.486C317.571 296.009 314.186 297.962 312.754 298.894Z" fill="url(#paint4_linear_31_206)"/>
<path d="M136.99 347.26C116.863 321.09 105.966 288.994 106 255.981C105.998 246.065 106.972 236.173 108.908 226.448C108.908 226.448 109.022 226.448 109.022 226.448C109.022 230.582 109.385 256.321 115.134 258.843C121.359 261.546 132.583 266.045 133.31 273.428C134.037 280.811 129.765 290.398 131.038 294.533C132.31 298.667 134.219 312.957 133.31 314.978C132.401 317 128.925 316.432 130.515 321.248C132.106 326.065 137.331 337.56 137.331 340.604C137.42 342.828 137.306 345.056 136.99 347.26Z" fill="url(#paint5_linear_31_206)"/>
<path d="M311.618 395.308C284.026 406.277 253.807 408.846 224.759 402.691C227.134 400.32 230.179 398.734 233.483 398.147C238.8 397.33 264.292 397.33 268.791 396.534C273.289 395.739 286.308 391.786 289.739 393.354C292.772 395.177 296.298 396.011 299.826 395.739C303.53 395.308 310.369 395.808 311.618 395.308Z" fill="url(#paint6_linear_31_206)"/>
<path d="M489.09 227.682C489.09 227.682 506.236 251.195 505.998 255.806C505.759 260.416 491.709 280.241 491.709 280.241C491.709 280.241 500.758 260.416 500.997 255.806C501.235 251.195 489.09 227.682 489.09 227.682Z" fill="#E0F1FA"/>
<path d="M489.09 227.682C489.09 227.682 506.236 251.195 505.998 255.806C505.759 260.416 491.709 280.241 491.709 280.241C491.709 280.241 500.758 260.416 500.997 255.806C501.235 251.195 489.09 227.682 489.09 227.682Z" fill="#E0F1FA"/>
<path d="M22.4534 228.139C22.4534 228.139 5.77067 251.448 6.00238 256.018C6.23408 260.589 19.9046 280.241 19.9046 280.241C19.9046 280.241 11.0999 260.589 10.8682 256.018C10.6365 251.448 22.4534 228.139 22.4534 228.139Z" fill="#E0F1FA"/>
<path d="M22.4534 228.139C22.4534 228.139 5.77067 251.448 6.00238 256.018C6.23408 260.589 19.9046 280.241 19.9046 280.241C19.9046 280.241 11.0999 260.589 10.8682 256.018C10.6365 251.448 22.4534 228.139 22.4534 228.139Z" fill="#E0F1FA"/>
<path d="M73.1848 351.539C73.1848 351.539 137.856 424.855 252.801 426.91C367.746 428.966 436.987 351.539 436.987 351.539C436.987 351.539 358.605 418.46 252.801 416.861C146.996 415.262 73.1848 351.539 73.1848 351.539Z" fill="#E0F1FA"/>
<path d="M73.1848 351.539C73.1848 351.539 137.856 424.855 252.801 426.91C367.746 428.966 436.987 351.539 436.987 351.539C436.987 351.539 358.605 418.46 252.801 416.861C146.996 415.262 73.1848 351.539 73.1848 351.539Z" fill="#E0F1FA"/>
<path d="M74.0988 161.411C74.0988 161.411 138.77 88.0958 253.715 86.0402C368.66 83.9846 437.901 161.411 437.901 161.411C437.901 161.411 359.519 94.4909 253.715 96.0897C147.911 97.6885 74.0988 161.411 74.0988 161.411Z" fill="#E0F1FA"/>
<path d="M74.0988 161.411C74.0988 161.411 138.77 88.0958 253.715 86.0402C368.66 83.9846 437.901 161.411 437.901 161.411C437.901 161.411 359.519 94.4909 253.715 96.0897C147.911 97.6885 74.0988 161.411 74.0988 161.411Z" fill="#E0F1FA"/>
<path d="M154 85.5L279.998 242.176L255.648 256.38L231.552 269.57L154 85.5Z" fill="url(#paint7_linear_31_206)"/>
<path d="M356 427.5L279.237 241.415L254.887 255.62L230.791 268.809L356 427.5Z" fill="url(#paint8_linear_31_206)"/>
<circle cx="256" cy="256" r="36" fill="url(#paint9_radial_31_206)"/>
<path d="M580.744 224.872C573.405 224.872 569.736 223.592 569.736 221.032C569.736 218.984 571.016 217.96 573.576 217.96H575.112C575.453 218.045 575.837 218.088 576.264 218.088C576.947 218.088 577.416 217.875 577.672 217.448C578.013 217.021 578.184 216.253 578.184 215.144C578.184 207.891 577.757 197.992 576.904 185.448C576.136 172.392 575.752 162.536 575.752 155.88C575.752 153.491 575.795 151.315 575.88 149.352L576.008 142.824C576.008 140.008 575.88 137.661 575.624 135.784C574.685 136.125 573.704 136.296 572.68 136.296C570.717 136.296 569.736 135.272 569.736 133.224C569.736 132.2 570.333 131.304 571.528 130.536C572.808 129.768 574.429 129.213 576.392 128.872C579.976 128.275 583.005 127.976 585.48 127.976C586.504 127.976 587.357 128.317 588.04 129C588.808 129.683 589.192 130.493 589.192 131.432C589.192 132.371 588.893 133.181 588.296 133.864C587.784 134.547 587.101 134.888 586.248 134.888C585.736 134.888 585.309 134.845 584.968 134.76H583.944C583.091 134.76 582.451 134.973 582.024 135.4C581.683 135.741 581.512 136.424 581.512 137.448C581.512 146.493 582.067 158.952 583.176 174.824C584.2 191.464 584.712 203.965 584.712 212.328V217.192C585.309 217.107 586.163 217.064 587.272 217.064C590.856 217.064 592.648 218.557 592.648 221.544V222.312L589.448 224.488C589.363 224.488 589.107 224.531 588.68 224.616C588.253 224.616 587.4 224.616 586.12 224.616C583.219 224.787 581.427 224.872 580.744 224.872ZM637.171 226.92C635.464 226.92 631.966 218.131 626.675 200.552C620.702 179.987 615.539 161.085 611.187 143.848V185.832C611.187 189.416 611.528 195.517 612.211 204.136C612.808 213.523 613.107 219.581 613.107 222.312C613.107 223.08 612.638 223.763 611.699 224.36C610.76 224.872 609.694 225.128 608.499 225.128C606.707 225.128 605.811 224.445 605.811 223.08L606.067 219.368C606.238 216.637 606.323 214.845 606.323 213.992C606.323 209.469 606.067 202.301 605.555 192.488C605.043 182.504 604.787 176.445 604.787 174.312V157.928C604.787 155.283 604.915 151.357 605.171 146.152C605.512 141.629 605.683 137.704 605.683 134.376V133.608C605.683 129.341 606.622 127.208 608.499 127.208C609.608 127.208 611.016 129.085 612.723 132.84C615.539 138.984 619.123 149.992 623.475 165.864C625.95 175.08 628.851 186.941 632.179 201.448C632.094 201.107 632.776 204.051 634.227 210.28L634.355 210.92C634.355 202.643 634.44 195.219 634.611 188.648L634.867 166.376V128.488C635.208 126.355 636.574 125.288 638.963 125.288C641.267 125.288 642.419 126.952 642.419 130.28V131.048C641.907 132.072 641.651 133.309 641.651 134.76C641.651 139.965 641.523 147.816 641.267 158.312C641.011 168.893 640.883 176.829 640.883 182.12V221.16C640.883 222.525 640.499 223.805 639.731 225C639.048 226.28 638.195 226.92 637.171 226.92ZM678.785 228.328C674.092 228.328 670.209 226.92 667.137 224.104C664.662 222.056 662.401 218.557 660.353 213.608C659.073 210.365 658.049 205.8 657.281 199.912C656.684 195.133 656.385 190.611 656.385 186.344C656.3 185.235 656.257 183.315 656.257 180.584V176.232V171.112C656.257 167.443 656.385 163.048 656.641 157.928C656.982 153.576 657.665 149.139 658.689 144.616C659.798 140.179 661.42 136.424 663.553 133.352C665.686 130.109 668.545 127.805 672.129 126.44C674.262 125.843 676.268 125.544 678.145 125.544C681.729 125.544 683.521 126.739 683.521 129.128C683.521 130.067 683.18 130.835 682.497 131.432C681.9 131.944 681.089 132.2 680.065 132.2C679.724 132.2 679.126 132.072 678.273 131.816L676.481 131.56C674.86 131.56 673.409 132.072 672.129 133.096C670.849 134.035 669.782 135.443 668.929 137.32C666.966 141.416 665.644 145.896 664.961 150.76C664.022 156.733 663.51 161.939 663.425 166.376C663.254 170.216 663.169 174.269 663.169 178.536V181.992C663.084 183.187 663.041 184.68 663.041 186.472C663.041 190.824 663.254 195.091 663.681 199.272C664.022 204.221 664.961 208.488 666.497 212.072C667.862 216.083 670.081 218.899 673.153 220.52C674.604 221.373 676.396 221.8 678.529 221.8C682.284 221.8 685.441 220.008 688.001 216.424C687.916 213.437 687.702 210.536 687.361 207.72C687.02 204.819 686.508 202.856 685.825 201.832C685.74 201.832 685.526 201.875 685.185 201.96C684.929 201.96 684.502 202.003 683.905 202.088L680.833 202.344C677.932 202.344 676.481 201.107 676.481 198.632C676.481 197.864 676.908 197.181 677.761 196.584C678.614 195.987 679.766 195.56 681.217 195.304C683.606 194.707 685.74 194.408 687.617 194.408C689.324 194.408 690.646 195.048 691.585 196.328C692.524 197.608 692.993 199.229 692.993 201.192C692.993 204.008 693.42 207.848 694.273 212.712C695.126 217.491 695.553 221.288 695.553 224.104C695.553 225.043 695.254 225.853 694.657 226.536C694.06 227.219 693.334 227.56 692.481 227.56C690.348 227.56 688.897 226.664 688.129 224.872V224.744L685.313 226.152C682.753 227.603 680.577 228.328 678.785 228.328ZM713.101 225.768C711.48 225.768 710.072 225.555 708.877 225.128C707.426 224.701 706.701 223.507 706.701 221.544V147.176C706.701 145.725 706.445 143.549 705.933 140.648C705.336 138.003 705.037 135.827 705.037 134.12V133.736C706.488 131.347 707.554 129.811 708.237 129.128C709.432 129.128 711.01 128.957 712.973 128.616C714.765 128.275 716.344 128.104 717.709 128.104C719.074 128.104 720.397 128.531 721.677 129.384C722.957 130.152 723.597 131.091 723.597 132.2C723.597 134.76 721.634 136.04 717.709 136.04H715.917C715.405 135.955 714.808 135.912 714.125 135.912C713.357 135.912 712.888 135.955 712.717 136.04C712.717 138.941 712.888 142.44 713.229 146.536L713.485 150.12L713.741 157.16C713.741 158.781 713.613 161.256 713.357 164.584L713.101 171.752L714.893 171.368C716.6 170.856 718.008 170.6 719.117 170.6C720.056 170.6 720.909 170.984 721.677 171.752C722.445 172.435 722.829 173.245 722.829 174.184C722.829 175.208 722.488 176.147 721.805 177C721.208 177.768 720.44 178.152 719.501 178.152L717.965 178.024H716.301C715.021 178.024 714.125 178.323 713.613 178.92V218.472L720.781 218.088C725.645 218.088 728.077 219.197 728.077 221.416V221.928C727.565 222.952 726.626 223.805 725.261 224.488C723.896 225.085 722.573 225.469 721.293 225.64L717.069 225.768H713.101ZM711.821 124.008C711.309 124.008 710.84 123.88 710.413 123.624C709.986 123.283 709.773 122.856 709.773 122.344C709.773 121.917 709.986 121.491 710.413 121.064L712.461 119.272C712.888 118.845 715.277 116.755 719.629 113L727.181 106.472C727.522 106.301 727.906 106.216 728.333 106.216C729.357 106.216 730.296 106.728 731.149 107.752C732.002 108.776 732.429 109.843 732.429 110.952C732.429 111.976 732.13 112.659 731.533 113C728.461 115.389 722.232 118.973 712.845 123.752C712.674 123.923 712.333 124.008 711.821 124.008ZM773.046 226.92C771.339 226.92 767.841 218.131 762.55 200.552C756.577 179.987 751.414 161.085 747.062 143.848V185.832C747.062 189.416 747.403 195.517 748.086 204.136C748.683 213.523 748.982 219.581 748.982 222.312C748.982 223.08 748.513 223.763 747.574 224.36C746.635 224.872 745.569 225.128 744.374 225.128C742.582 225.128 741.686 224.445 741.686 223.08L741.942 219.368C742.113 216.637 742.198 214.845 742.198 213.992C742.198 209.469 741.942 202.301 741.43 192.488C740.918 182.504 740.662 176.445 740.662 174.312V157.928C740.662 155.283 740.79 151.357 741.046 146.152C741.387 141.629 741.558 137.704 741.558 134.376V133.608C741.558 129.341 742.497 127.208 744.374 127.208C745.483 127.208 746.891 129.085 748.598 132.84C751.414 138.984 754.998 149.992 759.35 165.864C761.825 175.08 764.726 186.941 768.054 201.448C767.969 201.107 768.651 204.051 770.102 210.28L770.23 210.92C770.23 202.643 770.315 195.219 770.486 188.648L770.742 166.376V128.488C771.083 126.355 772.449 125.288 774.838 125.288C777.142 125.288 778.294 126.952 778.294 130.28V131.048C777.782 132.072 777.526 133.309 777.526 134.76C777.526 139.965 777.398 147.816 777.142 158.312C776.886 168.893 776.758 176.829 776.758 182.12V221.16C776.758 222.525 776.374 223.805 775.606 225C774.923 226.28 774.07 226.92 773.046 226.92ZM802.244 224.872C794.905 224.872 791.236 223.592 791.236 221.032C791.236 218.984 792.516 217.96 795.076 217.96H796.612C796.953 218.045 797.337 218.088 797.764 218.088C798.447 218.088 798.916 217.875 799.172 217.448C799.513 217.021 799.684 216.253 799.684 215.144C799.684 207.891 799.257 197.992 798.404 185.448C797.636 172.392 797.252 162.536 797.252 155.88C797.252 153.491 797.295 151.315 797.38 149.352L797.508 142.824C797.508 140.008 797.38 137.661 797.124 135.784C796.185 136.125 795.204 136.296 794.18 136.296C792.217 136.296 791.236 135.272 791.236 133.224C791.236 132.2 791.833 131.304 793.028 130.536C794.308 129.768 795.929 129.213 797.892 128.872C801.476 128.275 804.505 127.976 806.98 127.976C808.004 127.976 808.857 128.317 809.54 129C810.308 129.683 810.692 130.493 810.692 131.432C810.692 132.371 810.393 133.181 809.796 133.864C809.284 134.547 808.601 134.888 807.748 134.888C807.236 134.888 806.809 134.845 806.468 134.76H805.444C804.591 134.76 803.951 134.973 803.524 135.4C803.183 135.741 803.012 136.424 803.012 137.448C803.012 146.493 803.567 158.952 804.676 174.824C805.7 191.464 806.212 203.965 806.212 212.328V217.192C806.809 217.107 807.663 217.064 808.772 217.064C812.356 217.064 814.148 218.557 814.148 221.544V222.312L810.948 224.488C810.863 224.488 810.607 224.531 810.18 224.616C809.753 224.616 808.9 224.616 807.62 224.616C804.719 224.787 802.927 224.872 802.244 224.872ZM834.351 225.768C832.73 225.768 831.322 225.555 830.127 225.128C828.676 224.701 827.951 223.507 827.951 221.544V147.176C827.951 145.725 827.695 143.549 827.183 140.648C826.586 138.003 826.287 135.827 826.287 134.12V133.736C827.738 131.347 828.804 129.811 829.487 129.128C830.682 129.128 832.26 128.957 834.223 128.616C836.015 128.275 837.594 128.104 838.959 128.104C840.324 128.104 841.647 128.531 842.927 129.384C844.207 130.152 844.847 131.091 844.847 132.2C844.847 134.76 842.884 136.04 838.959 136.04H837.167C836.655 135.955 836.058 135.912 835.375 135.912C834.607 135.912 834.138 135.955 833.967 136.04C833.967 138.941 834.138 142.44 834.479 146.536L834.735 150.12L834.991 157.16C834.991 158.781 834.863 161.256 834.607 164.584L834.351 171.752L836.143 171.368C837.85 170.856 839.258 170.6 840.367 170.6C841.306 170.6 842.159 170.984 842.927 171.752C843.695 172.435 844.079 173.245 844.079 174.184C844.079 175.208 843.738 176.147 843.055 177C842.458 177.768 841.69 178.152 840.751 178.152L839.215 178.024H837.551C836.271 178.024 835.375 178.323 834.863 178.92V218.472L842.031 218.088C846.895 218.088 849.327 219.197 849.327 221.416V221.928C848.815 222.952 847.876 223.805 846.511 224.488C845.146 225.085 843.823 225.469 842.543 225.64L838.319 225.768H834.351ZM884.952 227.304C879.661 227.304 875.48 225 872.408 220.392C869.08 215.699 866.733 209.939 865.368 203.112C863.832 195.859 862.851 188.093 862.424 179.816C861.997 172.307 861.784 164.157 861.784 155.368V144.744C861.869 141.757 861.912 138.6 861.912 135.272C861.229 134.589 860.888 133.736 860.888 132.712C860.888 131.688 861.272 130.792 862.04 130.024C862.808 129.171 863.661 128.744 864.6 128.744C867.672 128.744 869.208 131.773 869.208 137.832C869.208 141.757 869.421 149.181 869.848 160.104C870.275 171.027 870.488 178.451 870.488 182.376C870.915 183.485 871.299 185.704 871.64 189.032C872.067 192.36 872.28 195.091 872.28 197.224C872.28 199.101 872.579 201.448 873.176 204.264C873.773 206.995 874.627 209.768 875.736 212.584C876.845 215.571 878.296 218.045 880.088 220.008C881.88 221.885 883.757 222.824 885.72 222.824C886.915 222.824 887.896 222.44 888.664 221.672C889.517 220.904 890.072 219.795 890.328 218.344C890.84 215.955 891.096 213.608 891.096 211.304V186.344C891.096 183.187 890.797 179.176 890.2 174.312C889.688 168.936 889.432 164.883 889.432 162.152V161.256C889.432 159.891 889.389 158.653 889.304 157.544L889.176 153.832C889.176 151.443 889.048 147.816 888.792 142.952C888.451 138.6 888.28 134.931 888.28 131.944C888.28 131.005 888.749 130.195 889.688 129.512C890.712 128.829 891.821 128.488 893.016 128.488L896.216 131.432V133.608C896.216 134.632 896.045 135.869 895.704 137.32C895.363 139.709 895.192 141.075 895.192 141.416C895.192 149.181 895.619 159.891 896.472 173.544C897.24 187.88 897.624 199.016 897.624 206.952C897.624 211.219 897.197 214.973 896.344 218.216C895.832 220.179 895.107 221.757 894.168 222.952C893.315 224.147 892.12 225.171 890.584 226.024C889.133 226.877 887.256 227.304 884.952 227.304ZM937.735 226.28C936.114 226.28 934.535 225.128 932.999 222.824V222.44C932.743 217.917 931.975 212.883 930.695 207.336C929.415 201.789 927.538 195.091 925.063 187.24C923.186 181.352 921.607 176.061 920.327 171.368V221.8C920.327 223.165 920.071 224.189 919.559 224.872C919.132 225.469 918.236 225.768 916.871 225.768C915.847 225.768 915.036 225.469 914.439 224.872C913.842 224.189 913.543 223.336 913.543 222.312V221.288L913.799 183.656C913.97 172.563 914.055 160.061 914.055 146.152V130.408C914.055 129.384 914.268 128.701 914.695 128.36C915.122 127.933 916.018 127.72 917.383 127.72C919.516 127.72 921.479 128.147 923.271 129C925.063 129.768 926.599 130.877 927.879 132.328C930.524 135.315 932.231 138.899 932.999 143.08C933.34 144.787 933.511 146.749 933.511 148.968C933.511 150.248 933.383 151.656 933.127 153.192C932.956 154.728 932.828 155.709 932.743 156.136C932.572 156.989 932.188 158.269 931.591 159.976C930.994 161.683 930.61 162.792 930.439 163.304L928.903 166.888L927.623 170.216C927.708 173.288 928.22 177.171 929.159 181.864C930.183 186.557 931.292 190.909 932.487 194.92C933.34 197.736 934.876 202.429 937.095 209L940.807 220.264V220.52C940.807 221.971 940.679 223.208 940.423 224.232C940.167 225.597 939.271 226.28 937.735 226.28ZM920.071 165.608C921.266 164.413 922.716 162.749 924.423 160.616L926.343 149.608C926.428 149.181 926.471 148.584 926.471 147.816C926.471 145.341 926.002 142.483 925.063 139.24C924.551 137.704 923.868 136.424 923.015 135.4C922.247 134.291 921.436 133.693 920.583 133.608L920.327 146.408C920.071 152.125 919.943 156.563 919.943 159.72C919.943 162.707 919.986 164.669 920.071 165.608ZM960.911 227.048C959.802 227.048 958.82 226.579 957.967 225.64C957.114 224.701 956.687 223.635 956.687 222.44C956.687 221.16 957.156 220.008 958.095 218.984C959.034 217.96 960.143 217.448 961.423 217.448C962.618 217.448 963.684 217.96 964.623 218.984C965.562 220.008 966.031 221.117 966.031 222.312C966.031 223.677 965.519 224.787 964.495 225.64C963.556 226.579 962.362 227.048 960.911 227.048ZM995.351 225.768C993.73 225.768 992.322 225.555 991.127 225.128C989.676 224.701 988.951 223.507 988.951 221.544V147.176C988.951 145.725 988.695 143.549 988.183 140.648C987.586 138.003 987.287 135.827 987.287 134.12V133.736C988.738 131.347 989.804 129.811 990.487 129.128C991.682 129.128 993.26 128.957 995.223 128.616C997.015 128.275 998.594 128.104 999.959 128.104C1001.32 128.104 1002.65 128.531 1003.93 129.384C1005.21 130.152 1005.85 131.091 1005.85 132.2C1005.85 134.76 1003.88 136.04 999.959 136.04H998.167C997.655 135.955 997.058 135.912 996.375 135.912C995.607 135.912 995.138 135.955 994.967 136.04C994.967 138.941 995.138 142.44 995.479 146.536L995.735 150.12L995.991 157.16C995.991 158.781 995.863 161.256 995.607 164.584L995.351 171.752L997.143 171.368C998.85 170.856 1000.26 170.6 1001.37 170.6C1002.31 170.6 1003.16 170.984 1003.93 171.752C1004.7 172.435 1005.08 173.245 1005.08 174.184C1005.08 175.208 1004.74 176.147 1004.06 177C1003.46 177.768 1002.69 178.152 1001.75 178.152L1000.22 178.024H998.551C997.271 178.024 996.375 178.323 995.863 178.92V218.472L1003.03 218.088C1007.9 218.088 1010.33 219.197 1010.33 221.416V221.928C1009.82 222.952 1008.88 223.805 1007.51 224.488C1006.15 225.085 1004.82 225.469 1003.54 225.64L999.319 225.768H995.351ZM1033.54 227.048C1032.43 227.048 1031.45 226.579 1030.59 225.64C1029.74 224.701 1029.31 223.635 1029.31 222.44C1029.31 221.16 1029.78 220.008 1030.72 218.984C1031.66 217.96 1032.77 217.448 1034.05 217.448C1035.24 217.448 1036.31 217.96 1037.25 218.984C1038.19 220.008 1038.66 221.117 1038.66 222.312C1038.66 223.677 1038.14 224.787 1037.12 225.64C1036.18 226.579 1034.99 227.048 1033.54 227.048ZM1067.98 227.816C1064.9 227.816 1062.26 227.261 1060.04 226.152C1058.67 225.384 1057.99 224.488 1057.99 223.464C1057.99 222.44 1058.25 221.629 1058.76 221.032C1059.27 220.349 1060 220.008 1060.94 220.008C1061.79 220.008 1063.03 220.349 1064.65 221.032C1066.44 221.715 1067.55 222.056 1067.98 222.056C1069.6 222.056 1071.05 221.373 1072.33 220.008C1073.69 218.557 1074.76 216.68 1075.53 214.376C1077.06 210.109 1077.83 206.269 1077.83 202.856C1077.83 199.187 1077.23 195.347 1076.04 191.336C1074.93 187.24 1073.39 183.272 1071.43 179.432L1069.38 175.336C1067.25 171.069 1065.59 167.699 1064.39 165.224C1063.28 162.749 1062.3 160.061 1061.45 157.16C1060.17 153.064 1059.53 149.096 1059.53 145.256C1059.53 142.184 1060.04 139.283 1061.06 136.552C1062.17 133.821 1063.79 131.517 1065.93 129.64C1068.06 127.592 1070.71 126.568 1073.86 126.568C1075.4 126.568 1076.89 127.037 1078.34 127.976C1079.79 128.829 1080.82 129.939 1081.42 131.304L1079.24 133.992C1077.02 133.992 1075.36 133.565 1074.25 132.712C1072.71 132.883 1071.35 133.651 1070.15 135.016C1069.04 136.296 1068.19 137.789 1067.59 139.496C1067.08 141.117 1066.82 142.739 1066.82 144.36C1066.82 147.603 1067.25 150.931 1068.1 154.344C1069.04 157.672 1070.24 160.829 1071.69 163.816L1080.65 181.736C1082.1 184.808 1083.25 188.264 1084.1 192.104C1084.96 195.944 1085.38 199.784 1085.38 203.624C1085.38 209.256 1084.02 214.547 1081.29 219.496C1079.84 222.056 1077.96 224.061 1075.66 225.512C1073.35 227.048 1070.79 227.816 1067.98 227.816ZM577.032 386.64C576.093 386.64 575.325 386.256 574.728 385.488C574.216 384.635 573.96 383.611 573.96 382.416L574.216 360.912C574.472 350.501 574.6 342.437 574.6 336.72C574.6 316.837 573.491 301.605 571.272 291.024C572.552 289.061 574.173 288.08 576.136 288.08C579.293 288.08 582.152 288.805 584.712 290.256C587.357 291.621 589.533 293.499 591.24 295.888C594.568 300.837 596.232 306.384 596.232 312.528C596.232 318.928 594.867 324.645 592.136 329.68C589.405 334.715 585.437 338.64 580.232 341.456L580.488 354.384L580.744 361.168C580.829 362.619 580.872 364.709 580.872 367.44C581.128 373.157 581.256 377.808 581.256 381.392C581.256 383.013 580.915 384.293 580.232 385.232C579.549 386.171 578.483 386.64 577.032 386.64ZM579.976 335.312C583.304 332.155 585.736 328.869 587.272 325.456C588.893 321.957 589.704 318.032 589.704 313.68V313.552C589.704 311.589 589.491 309.115 589.064 306.128C588.808 305.104 588.339 304.08 587.656 303.056C586.973 302.032 586.589 301.435 586.504 301.264C585.907 300.411 584.328 299.088 581.768 297.296L578.44 294.864C578.44 299.216 578.696 305.957 579.208 315.088L579.976 335.312ZM626.323 389.584C624.019 389.584 621.928 388.816 620.051 387.28C618.174 385.744 616.552 383.653 615.187 381.008C612.712 376.4 610.878 370.085 609.683 362.064C608.83 356.517 608.19 350.117 607.763 342.864L607.635 336.08V329.168C607.55 326.949 607.507 324.261 607.507 321.104C607.507 315.984 607.72 311.461 608.147 307.536C608.488 303.44 609.342 299.387 610.707 295.376C612.072 291.877 614.035 289.403 616.595 287.952C618.131 287.269 619.667 286.928 621.203 286.928C625.726 286.928 629.31 288.72 631.955 292.304C634.856 296.315 636.776 300.795 637.715 305.744C639.08 311.717 639.848 317.435 640.019 322.896C640.36 328.955 640.531 334.672 640.531 340.048V347.344C640.531 348.795 640.318 351.525 639.891 355.536C639.55 358.693 639.379 361.381 639.379 363.6V364.112C638.867 366.501 638.611 369.317 638.611 372.56C638.611 374.949 638.099 377.424 637.075 379.984C636.051 382.544 634.6 384.72 632.723 386.512C630.846 388.56 628.712 389.584 626.323 389.584ZM626.579 382.544C628.286 382.544 629.736 380.965 630.931 377.808C631.955 374.992 632.68 371.579 633.107 367.568C633.619 363.472 634.046 358.864 634.387 353.744C634.558 351.525 634.643 348.667 634.643 345.168L634.515 333.392C634.344 328.784 633.832 323.024 632.979 316.112C632.296 310.224 631.016 305.019 629.139 300.496C628.286 298.363 627.219 296.699 625.939 295.504C624.659 294.309 623.294 293.712 621.843 293.712C619.71 293.712 618.131 295.376 617.107 298.704C615.827 302.203 614.974 306.043 614.547 310.224C614.035 314.747 613.736 319.056 613.651 323.152L613.523 327.376C613.438 328.571 613.395 330.192 613.395 332.24V332.752C613.395 338.469 613.992 345.509 615.187 353.872C616.552 365.221 618.558 373.285 621.203 378.064C622.91 381.051 624.702 382.544 626.579 382.544ZM677.327 388.304C672.036 388.304 667.855 386 664.783 381.392C661.455 376.699 659.108 370.939 657.743 364.112C656.207 356.859 655.226 349.093 654.799 340.816C654.372 333.307 654.159 325.157 654.159 316.368V305.744C654.244 302.757 654.287 299.6 654.287 296.272C653.604 295.589 653.263 294.736 653.263 293.712C653.263 292.688 653.647 291.792 654.415 291.024C655.183 290.171 656.036 289.744 656.975 289.744C660.047 289.744 661.583 292.773 661.583 298.832C661.583 302.757 661.796 310.181 662.223 321.104C662.65 332.027 662.863 339.451 662.863 343.376C663.29 344.485 663.674 346.704 664.015 350.032C664.442 353.36 664.655 356.091 664.655 358.224C664.655 360.101 664.954 362.448 665.551 365.264C666.148 367.995 667.002 370.768 668.111 373.584C669.22 376.571 670.671 379.045 672.463 381.008C674.255 382.885 676.132 383.824 678.095 383.824C679.29 383.824 680.271 383.44 681.039 382.672C681.892 381.904 682.447 380.795 682.703 379.344C683.215 376.955 683.471 374.608 683.471 372.304V347.344C683.471 344.187 683.172 340.176 682.575 335.312C682.063 329.936 681.807 325.883 681.807 323.152V322.256C681.807 320.891 681.764 319.653 681.679 318.544L681.551 314.832C681.551 312.443 681.423 308.816 681.167 303.952C680.826 299.6 680.655 295.931 680.655 292.944C680.655 292.005 681.124 291.195 682.063 290.512C683.087 289.829 684.196 289.488 685.391 289.488L688.591 292.432V294.608C688.591 295.632 688.42 296.869 688.079 298.32C687.738 300.709 687.567 302.075 687.567 302.416C687.567 310.181 687.994 320.891 688.847 334.544C689.615 348.88 689.999 360.016 689.999 367.952C689.999 372.219 689.572 375.973 688.719 379.216C688.207 381.179 687.482 382.757 686.543 383.952C685.69 385.147 684.495 386.171 682.959 387.024C681.508 387.877 679.631 388.304 677.327 388.304ZM730.11 387.28C728.489 387.28 726.91 386.128 725.374 383.824V383.44C725.118 378.917 724.35 373.883 723.07 368.336C721.79 362.789 719.913 356.091 717.438 348.24C715.561 342.352 713.982 337.061 712.702 332.368V382.8C712.702 384.165 712.446 385.189 711.934 385.872C711.507 386.469 710.611 386.768 709.246 386.768C708.222 386.768 707.411 386.469 706.814 385.872C706.217 385.189 705.918 384.336 705.918 383.312V382.288L706.174 344.656C706.345 333.563 706.43 321.061 706.43 307.152V291.408C706.43 290.384 706.643 289.701 707.07 289.36C707.497 288.933 708.393 288.72 709.758 288.72C711.891 288.72 713.854 289.147 715.646 290C717.438 290.768 718.974 291.877 720.254 293.328C722.899 296.315 724.606 299.899 725.374 304.08C725.715 305.787 725.886 307.749 725.886 309.968C725.886 311.248 725.758 312.656 725.502 314.192C725.331 315.728 725.203 316.709 725.118 317.136C724.947 317.989 724.563 319.269 723.966 320.976C723.369 322.683 722.985 323.792 722.814 324.304L721.278 327.888L719.998 331.216C720.083 334.288 720.595 338.171 721.534 342.864C722.558 347.557 723.667 351.909 724.862 355.92C725.715 358.736 727.251 363.429 729.47 370L733.182 381.264V381.52C733.182 382.971 733.054 384.208 732.798 385.232C732.542 386.597 731.646 387.28 730.11 387.28ZM712.446 326.608C713.641 325.413 715.091 323.749 716.798 321.616L718.718 310.608C718.803 310.181 718.846 309.584 718.846 308.816C718.846 306.341 718.377 303.483 717.438 300.24C716.926 298.704 716.243 297.424 715.39 296.4C714.622 295.291 713.811 294.693 712.958 294.608L712.702 307.408C712.446 313.125 712.318 317.563 712.318 320.72C712.318 323.707 712.361 325.669 712.446 326.608ZM773.333 386.256C771.626 386.256 770.133 385.872 768.853 385.104C767.658 384.336 767.061 383.269 767.061 381.904C768.938 380.027 769.877 375.035 769.877 366.928C769.877 362.064 769.493 354.981 768.725 345.68C767.872 336.805 767.445 329.808 767.445 324.688L767.701 317.648C767.786 315.6 767.829 313.253 767.829 310.608C767.829 308.219 767.402 305.189 766.549 301.52C765.525 297.68 765.013 294.992 765.013 293.456C765.013 290.469 768.298 288.976 774.869 288.976H776.789C781.397 288.976 785.408 290.384 788.821 293.2C791.552 295.589 793.856 299.045 795.733 303.568C797.013 306.64 798.122 310.907 799.061 316.368C799.573 321.147 799.829 324.901 799.829 327.632V331.728V337.744C799.658 338.085 799.573 338.427 799.573 338.768C799.573 339.451 799.616 339.963 799.701 340.304C799.786 340.645 799.829 341.072 799.829 341.584C799.829 344.315 799.402 347.6 798.549 351.44C797.781 355.195 796.629 359.035 795.093 362.96C791.253 372.347 786.944 379.003 782.165 382.928C779.349 385.147 776.405 386.256 773.333 386.256ZM776.021 378.832C779.178 376.869 781.952 374.053 784.341 370.384C786.73 366.629 788.565 362.491 789.845 357.968C792.149 349.605 793.301 341.157 793.301 332.624C793.301 328.016 792.874 322.981 792.021 317.52C791.082 312.229 789.077 307.451 786.005 303.184C784.554 301.136 782.72 299.557 780.501 298.448C778.282 297.253 775.765 296.656 772.949 296.656V296.784C772.949 304.464 773.461 316.069 774.485 331.6C775.509 347.045 776.021 358.736 776.021 366.672V378.832ZM822.601 386.768C820.98 386.768 819.572 386.555 818.377 386.128C816.926 385.701 816.201 384.507 816.201 382.544V308.176C816.201 306.725 815.945 304.549 815.433 301.648C814.836 299.003 814.537 296.827 814.537 295.12V294.736C815.988 292.347 817.054 290.811 817.737 290.128C818.932 290.128 820.51 289.957 822.473 289.616C824.265 289.275 825.844 289.104 827.209 289.104C828.574 289.104 829.897 289.531 831.177 290.384C832.457 291.152 833.097 292.091 833.097 293.2C833.097 295.76 831.134 297.04 827.209 297.04H825.417C824.905 296.955 824.308 296.912 823.625 296.912C822.857 296.912 822.388 296.955 822.217 297.04C822.217 299.941 822.388 303.44 822.729 307.536L822.985 311.12L823.241 318.16C823.241 319.781 823.113 322.256 822.857 325.584L822.601 332.752L824.393 332.368C826.1 331.856 827.508 331.6 828.617 331.6C829.556 331.6 830.409 331.984 831.177 332.752C831.945 333.435 832.329 334.245 832.329 335.184C832.329 336.208 831.988 337.147 831.305 338C830.708 338.768 829.94 339.152 829.001 339.152L827.465 339.024H825.801C824.521 339.024 823.625 339.323 823.113 339.92V379.472L830.281 379.088C835.145 379.088 837.577 380.197 837.577 382.416V382.928C837.065 383.952 836.126 384.805 834.761 385.488C833.396 386.085 832.073 386.469 830.793 386.64L826.569 386.768H822.601ZM887.794 389.328C886.941 389.328 886.258 388.901 885.746 388.048C885.234 387.195 884.978 385.957 884.978 384.336L884.85 365.392C884.765 363.771 884.722 361.083 884.722 357.328C884.551 349.392 884.466 340.432 884.466 330.448V323.92C883.698 328.016 882.375 333.776 880.498 341.2C878.621 348.88 877.298 355.195 876.53 360.144V360.912L876.146 363.344C875.975 365.221 875.549 367.141 874.866 369.104C874.013 371.152 872.69 372.176 870.898 372.176C867.826 372.176 866.29 368.165 866.29 360.144C866.29 355.707 865.821 350.971 864.882 345.936C864.029 340.816 862.621 334.544 860.658 327.12L856.818 312.784L856.562 328.144C856.562 332.752 856.775 341.541 857.202 354.512L857.458 363.216L857.714 380.752C857.714 382.544 857.074 384.165 855.794 385.616C853.661 385.616 852.167 384.976 851.314 383.696C850.546 382.331 850.162 380.368 850.162 377.808L850.418 367.312C850.674 362.704 850.802 359.248 850.802 356.944L850.546 332.24L850.29 307.408C850.29 303.739 850.375 298.235 850.546 290.896L854.002 288.848C854.685 288.933 855.367 289.445 856.05 290.384C856.733 291.237 857.501 292.645 858.354 294.608C860.487 299.899 863.261 310.48 866.674 326.352C867.186 328.571 867.527 330.405 867.698 331.856C868.722 336.805 869.447 340.56 869.874 343.12L871.794 352.976L872.69 348.752L875.122 338.256C876.487 332.112 877.597 326.736 878.45 322.128C879.389 317.52 880.285 312.528 881.138 307.152C882.077 300.752 882.674 295.419 882.93 291.152V290.384C883.101 289.275 883.613 288.421 884.466 287.824C885.319 287.141 886.343 286.8 887.538 286.8C888.306 286.8 888.989 287.141 889.586 287.824C890.183 288.507 890.482 289.232 890.482 290C890.482 300.24 890.866 315.557 891.634 335.952C892.061 345.936 892.359 355.707 892.53 365.264C892.701 369.616 892.786 375.12 892.786 381.776C892.786 383.739 892.274 385.488 891.25 387.024C890.226 388.56 889.074 389.328 887.794 389.328ZM934.274 386C932.909 386 931.885 385.744 931.202 385.232C930.605 384.72 930.306 383.867 930.306 382.672V365.904C929.197 365.136 927.106 364.453 924.034 363.856C920.962 363.259 918.061 362.875 915.33 362.704C914.391 364.496 913.709 366.672 913.282 369.232L912.77 371.792C912.685 372.389 912.429 373.712 912.002 375.76C911.575 377.808 911.106 379.6 910.594 381.136C910.082 382.587 909.57 383.739 909.058 384.592C905.815 384.592 903.938 383.739 903.426 382.032C904.365 380.667 905.431 376.656 906.626 370L910.85 346.576C912.727 335.483 914.434 326.011 915.97 318.16C917.591 310.309 919.298 303.739 921.09 298.448C923.053 292.56 924.93 289.616 926.722 289.616C928.514 289.616 929.879 289.957 930.818 290.64C930.818 294.053 931.629 302.288 933.25 315.344C934.957 328.144 935.81 336.891 935.81 341.584C935.81 346.107 936.279 352.592 937.218 361.04C938.071 369.659 938.498 376.528 938.498 381.648C938.498 384.549 937.09 386 934.274 386ZM927.618 358.48C928.301 358.48 929.154 358.352 930.178 358.096C929.922 354.341 929.495 349.691 928.898 344.144C926.935 324.859 925.954 313.04 925.954 308.688V307.664C925.101 308.517 923.906 312.4 922.37 319.312C920.919 326.139 919.554 333.477 918.274 341.328C916.994 349.179 916.311 354.384 916.226 356.944C919.81 357.968 923.607 358.48 927.618 358.48ZM961.744 385.872C954.405 385.872 950.736 384.592 950.736 382.032C950.736 379.984 952.016 378.96 954.576 378.96H956.112C956.453 379.045 956.837 379.088 957.264 379.088C957.947 379.088 958.416 378.875 958.672 378.448C959.013 378.021 959.184 377.253 959.184 376.144C959.184 368.891 958.757 358.992 957.904 346.448C957.136 333.392 956.752 323.536 956.752 316.88C956.752 314.491 956.795 312.315 956.88 310.352L957.008 303.824C957.008 301.008 956.88 298.661 956.624 296.784C955.685 297.125 954.704 297.296 953.68 297.296C951.717 297.296 950.736 296.272 950.736 294.224C950.736 293.2 951.333 292.304 952.528 291.536C953.808 290.768 955.429 290.213 957.392 289.872C960.976 289.275 964.005 288.976 966.48 288.976C967.504 288.976 968.357 289.317 969.04 290C969.808 290.683 970.192 291.493 970.192 292.432C970.192 293.371 969.893 294.181 969.296 294.864C968.784 295.547 968.101 295.888 967.248 295.888C966.736 295.888 966.309 295.845 965.968 295.76H964.944C964.091 295.76 963.451 295.973 963.024 296.4C962.683 296.741 962.512 297.424 962.512 298.448C962.512 307.493 963.067 319.952 964.176 335.824C965.2 352.464 965.712 364.965 965.712 373.328V378.192C966.309 378.107 967.163 378.064 968.272 378.064C971.856 378.064 973.648 379.557 973.648 382.544V383.312L970.448 385.488C970.363 385.488 970.107 385.531 969.68 385.616C969.253 385.616 968.4 385.616 967.12 385.616C964.219 385.787 962.427 385.872 961.744 385.872ZM1018.17 387.92C1016.46 387.92 1012.97 379.131 1007.68 361.552C1001.7 340.987 996.539 322.085 992.187 304.848V346.832C992.187 350.416 992.528 356.517 993.211 365.136C993.808 374.523 994.107 380.581 994.107 383.312C994.107 384.08 993.638 384.763 992.699 385.36C991.76 385.872 990.694 386.128 989.499 386.128C987.707 386.128 986.811 385.445 986.811 384.08L987.067 380.368C987.238 377.637 987.323 375.845 987.323 374.992C987.323 370.469 987.067 363.301 986.555 353.488C986.043 343.504 985.787 337.445 985.787 335.312V318.928C985.787 316.283 985.915 312.357 986.171 307.152C986.512 302.629 986.683 298.704 986.683 295.376V294.608C986.683 290.341 987.622 288.208 989.499 288.208C990.608 288.208 992.016 290.085 993.723 293.84C996.539 299.984 1000.12 310.992 1004.48 326.864C1006.95 336.08 1009.85 347.941 1013.18 362.448C1013.09 362.107 1013.78 365.051 1015.23 371.28L1015.36 371.92C1015.36 363.643 1015.44 356.219 1015.61 349.648L1015.87 327.376V289.488C1016.21 287.355 1017.57 286.288 1019.96 286.288C1022.27 286.288 1023.42 287.952 1023.42 291.28V292.048C1022.91 293.072 1022.65 294.309 1022.65 295.76C1022.65 300.965 1022.52 308.816 1022.27 319.312C1022.01 329.893 1021.88 337.829 1021.88 343.12V382.16C1021.88 383.525 1021.5 384.805 1020.73 386C1020.05 387.28 1019.2 387.92 1018.17 387.92Z" fill="#E0F1FA"/>
<defs>
<linearGradient id="paint0_linear_31_206" x1="165.65" y1="225.806" x2="405.521" y2="225.806" gradientUnits="userSpaceOnUse">
<stop stop-color="#085078"/>
<stop offset="1" stop-color="#85D8CE"/>
</linearGradient>
<linearGradient id="paint1_linear_31_206" x1="205.217" y1="137.856" x2="214.473" y2="137.856" gradientUnits="userSpaceOnUse">
<stop stop-color="#085078"/>
<stop offset="1" stop-color="#85D8CE"/>
</linearGradient>
<linearGradient id="paint2_linear_31_206" x1="216.925" y1="134.263" x2="226.849" y2="134.263" gradientUnits="userSpaceOnUse">
<stop stop-color="#085078"/>
<stop offset="1" stop-color="#85D8CE"/>
</linearGradient>
<linearGradient id="paint3_linear_31_206" x1="384.179" y1="236.048" x2="387.178" y2="236.048" gradientUnits="userSpaceOnUse">
<stop stop-color="#085078"/>
<stop offset="1" stop-color="#85D8CE"/>
</linearGradient>
<linearGradient id="paint4_linear_31_206" x1="307.772" y1="305.115" x2="325.991" y2="305.115" gradientUnits="userSpaceOnUse">
<stop stop-color="#085078"/>
<stop offset="1" stop-color="#85D8CE"/>
</linearGradient>
<linearGradient id="paint5_linear_31_206" x1="106" y1="286.854" x2="137.36" y2="286.854" gradientUnits="userSpaceOnUse">
<stop stop-color="#085078"/>
<stop offset="1" stop-color="#85D8CE"/>
</linearGradient>
<linearGradient id="paint6_linear_31_206" x1="224.759" y1="399.476" x2="311.618" y2="399.476" gradientUnits="userSpaceOnUse">
<stop stop-color="#085078"/>
<stop offset="1" stop-color="#85D8CE"/>
</linearGradient>
<linearGradient id="paint7_linear_31_206" x1="223" y1="153.5" x2="179" y2="178" gradientUnits="userSpaceOnUse">
<stop stop-color="#2CC52A"/>
<stop offset="1" stop-color="#136C12"/>
</linearGradient>
<linearGradient id="paint8_linear_31_206" x1="272" y1="346.5" x2="324" y2="319" gradientUnits="userSpaceOnUse">
<stop stop-color="#B8E4FB"/>
<stop offset="1" stop-color="#F8FCFF"/>
</linearGradient>
<radialGradient id="paint9_radial_31_206" cx="0" cy="0" r="1" gradientUnits="userSpaceOnUse" gradientTransform="translate(220 276) rotate(-29.3578) scale(73.4302)">
<stop/>
<stop offset="1" stop-color="#1F354E"/>
</radialGradient>
</defs>
</svg>
